# xmcd
#
# Track frame offsets: 
#        150
#        10093
#        23114
#        35023
#        46375
#        57678
#        68838
#        81230
#        93132
#        105727
#        118328
#        130171
#        141730
#        154281
#        167736
#        180629
#        191292
#        202883
#        213799
#        225078
#        238348
#        250851
#        263993
#        274698
#        286625
#        296651
#        309457
#
# Disc length: 4289 seconds
#
# Revision: 0
# Processed by: cddbd v1.5.1PL2 Copyright (c) Steve Scherf et al.
# Submitted via: ExactAudioCopy v0.95b4
#
DISCID=8610bf1b
DTITLE=Various Artist - The Complete Motown Singles Volume 4 [CD16)
DYEAR=2006
DGENRE=R&B/Soul
TTITLE0=Little Stevie Wonder - Castles In The Sand
TTITLE1=Little Stevie Wonder - Thank You (For Loving Me All The Way
TTITLE2=Martha and The Vandellas - Live Wire (Commercial Version)
TTITLE3=Martha and The Vandellas - Old Love (Let's Try It Again)
TTITLE4=Martha and The Vandellas - Live Wire (Promo Version)
TTITLE5=Gene Henslee - Shambles
TTITLE6=Gene Henslee - Beautiful Woman
TTITLE7=The Temptations - The Way You Do The Things You Do
TTITLE8=The Temptations - Just Let Me Know
TTITLE9=The Serenaders - If Your Heart Says Yes
TTITLE10=The Serenaders - I'll Cry Tomorrow
TTITLE11=The Marvelettes - He's A Good Guy (Yes He Is)
TTITLE12=The Marvelettes - Goddess Of Love
TTITLE13=Bobby Breen - How Can We Tell Him
TTITLE14=Bobby Breen - Better Late Than Never
TTITLE15=The Supremes - Run, Run, Run
TTITLE16=The Supremes - I'm Giving You Your Freedom
TTITLE17=Joanne and The Triangles - After The Shower Came Flowers
TTITLE18=Joanne and The Triangles - Don't Be A Cry Baby
TTITLE19=The Miracles - (You Can't Let The Boy Overpower) The Man In Y
TTITLE19=ou
TTITLE20=The Miracles - Heartbreak Road
TTITLE21=Sammy Turner - Only You
TTITLE22=Sammy Turner - Right Now
TTITLE23=The Hornets - Give Me A Kiss
TTITLE24=The Hornets - She's My Baby
TTITLE25=Marvin Gaye - You're A Wonderful One
TTITLE26=Marvin Gaye - When I'm Alone I Cry
EXTD=
EXTT0=
EXTT1=
EXTT2=
EXTT3=
EXTT4=
EXTT5=
EXTT6=
EXTT7=
EXTT8=
EXTT9=
EXTT10=
EXTT11=
EXTT12=
EXTT13=
EXTT14=
EXTT15=
EXTT16=
EXTT17=
EXTT18=
EXTT19=
EXTT20=
EXTT21=
EXTT22=
EXTT23=
EXTT24=
EXTT25=
EXTT26=
PLAYORDER=
